<svg width="397" height="82" viewBox="0 0 397 82" fill="none" xmlns="http://www.w3.org/2000/svg">
<path d="M85.3413 33.6382L91.0954 44.2513C91.4351 44.8709 91.485 45.3906 91.2453 45.8103C91.0055 46.2301 90.536 46.4399 89.8367 46.4399H78.658C78.2384 46.4399 77.8189 46.29 77.3993 45.9902C76.9797 45.6704 76.66 45.2807 76.4403 44.821L72.8139 37.5657H66.6701V44.5511C66.6701 45.1108 66.4703 45.5705 66.0708 45.9302C65.6911 46.27 65.2116 46.4399 64.6322 46.4399H54.8321C54.2727 46.4399 53.8132 46.27 53.4535 45.9302C53.0939 45.5705 52.9141 45.1108 52.9141 44.5511V2.81817C52.9141 2.25854 53.0939 1.79883 53.4535 1.43907C53.8132 1.0793 54.2727 0.899417 54.8321 0.899417H72.8139C76.5302 0.899417 79.8668 1.68891 82.8238 3.26788C85.8008 4.84686 88.1185 7.05543 89.7768 9.89359C91.4551 12.7118 92.2942 15.8897 92.2942 19.4274C92.2942 22.3655 91.6848 25.0638 90.4661 27.5222C89.2473 29.9606 87.539 31.9993 85.3413 33.6382ZM66.6701 12.8916V26.173H71.8849C73.8429 26.173 75.4413 25.5534 76.68 24.3143C77.9387 23.0551 78.5681 21.4061 78.5681 19.3675C78.5681 17.4887 77.9387 15.9397 76.68 14.7205C75.4213 13.5013 73.8229 12.8916 71.8849 12.8916H66.6701Z" fill="white"/>
<path d="M99.1309 33.0086C97.8922 30.0905 97.2728 26.9925 97.2728 23.7146C97.2728 20.4368 97.8922 17.3388 99.1309 14.4207C100.37 11.4826 102.048 8.96419 104.166 6.86555C106.284 4.76691 108.811 3.10799 111.748 1.88878C114.685 0.669566 117.792 0.0599612 121.069 0.0599612C124.345 0.0599612 127.452 0.669566 130.389 1.88878C133.326 3.10799 135.854 4.76691 137.972 6.86555C140.089 8.96419 141.768 11.4826 143.007 14.4207C144.245 17.3388 144.865 20.4368 144.865 23.7146C144.865 26.9925 144.245 30.0905 143.007 33.0086C141.768 35.9267 140.089 38.4251 137.972 40.5038C135.854 42.5824 133.326 44.2313 130.389 45.4506C127.452 46.6698 124.345 47.2794 121.069 47.2794C117.772 47.2794 114.655 46.6698 111.718 45.4506C108.781 44.2313 106.254 42.5824 104.136 40.5038C102.038 38.4251 100.37 35.9267 99.1309 33.0086ZM110.999 23.7146C110.999 26.5128 111.968 28.8513 113.906 30.7301C115.844 32.6089 118.232 33.5483 121.069 33.5483C123.906 33.5483 126.293 32.6089 128.231 30.7301C130.17 28.8513 131.139 26.5128 131.139 23.7146C131.139 20.9165 130.16 18.558 128.202 16.6392C126.263 14.7205 123.886 13.7611 121.069 13.7611C118.252 13.7611 115.864 14.7205 113.906 16.6392C111.968 18.538 110.999 20.8965 110.999 23.7146Z" fill="white"/>
<path d="M146.936 10.9129V2.84816C146.936 2.22856 147.106 1.74887 147.446 1.40909C147.785 1.06931 148.255 0.899417 148.854 0.899417H180.862C181.461 0.899417 181.931 1.0793 182.27 1.43907C182.61 1.77885 182.78 2.24854 182.78 2.84816V10.9129C182.78 11.5125 182.61 11.9922 182.27 12.352C181.931 12.7118 181.461 12.8916 180.862 12.8916H171.661V44.5212C171.661 45.1208 171.491 45.5905 171.152 45.9302C170.832 46.27 170.362 46.4399 169.743 46.4399H159.883C159.264 46.4399 158.784 46.27 158.445 45.9302C158.105 45.5905 157.935 45.1208 157.935 44.5212V12.8916H148.854C148.255 12.8916 147.785 12.7218 147.446 12.382C147.106 12.0222 146.936 11.5325 146.936 10.9129Z" fill="white"/>
<path d="M186.71 33.0086C185.471 30.0905 184.851 26.9925 184.851 23.7146C184.851 20.4368 185.471 17.3388 186.71 14.4207C187.948 11.4826 189.627 8.96419 191.744 6.86555C193.862 4.76691 196.39 3.10799 199.327 1.88878C202.264 0.669566 205.371 0.0599612 208.647 0.0599612C211.924 0.0599612 215.031 0.669566 217.968 1.88878C220.905 3.10799 223.432 4.76691 225.55 6.86555C227.668 8.96419 229.346 11.4826 230.585 14.4207C231.824 17.3388 232.443 20.4368 232.443 23.7146C232.443 26.9925 231.824 30.0905 230.585 33.0086C229.346 35.9267 227.668 38.4251 225.55 40.5038C223.432 42.5824 220.905 44.2313 217.968 45.4506C215.031 46.6698 211.924 47.2794 208.647 47.2794C205.351 47.2794 202.234 46.6698 199.297 45.4506C196.36 44.2313 193.832 42.5824 191.714 40.5038C189.617 38.4251 187.948 35.9267 186.71 33.0086ZM198.578 23.7146C198.578 26.5128 199.547 28.8513 201.485 30.7301C203.423 32.6089 205.81 33.5483 208.647 33.5483C211.484 33.5483 213.872 32.6089 215.81 30.7301C217.748 28.8513 218.717 26.5128 218.717 23.7146C218.717 20.9165 217.738 18.558 215.78 16.6392C213.842 14.7205 211.464 13.7611 208.647 13.7611C205.83 13.7611 203.443 14.7205 201.485 16.6392C199.547 18.538 198.578 20.8965 198.578 23.7146Z" fill="white"/>
<path d="M280.009 0.899417C280.448 0.899417 280.788 1.02933 281.028 1.28916C281.267 1.52901 281.387 1.8588 281.387 2.27852V45.9003C281.387 46.34 281.257 46.6798 280.998 46.9196C280.758 47.1595 280.428 47.2794 280.009 47.2794H279.14C278.8 47.2794 278.5 47.2194 278.241 47.0995C277.981 46.9796 277.641 46.7297 277.222 46.35C276.822 45.9702 276.562 45.7304 276.442 45.6304L252.197 26.8626V45.0608C252.197 45.5005 252.067 45.8403 251.807 46.0802C251.568 46.32 251.238 46.4399 250.818 46.4399H239.819C239.4 46.4399 239.06 46.32 238.8 46.0802C238.561 45.8403 238.441 45.5005 238.441 45.0608V1.37911C238.441 0.459702 238.9 0 239.819 0H240.479C240.679 0 240.858 0.0199871 241.018 0.0599612C241.178 0.0999353 241.338 0.16989 241.498 0.269825C241.658 0.36976 241.787 0.459702 241.887 0.53965C241.987 0.599612 242.137 0.719534 242.337 0.899417C242.557 1.0793 242.726 1.21921 242.846 1.31915L267.661 21.556V2.27852C267.661 1.35912 268.121 0.899417 269.04 0.899417H280.009Z" fill="white"/>
<path d="M303.089 2.27852V45.0608C303.089 45.9802 302.629 46.4399 301.71 46.4399H290.741C289.822 46.4399 289.363 45.9802 289.363 45.0608V2.27852C289.363 1.35912 289.822 0.899417 290.741 0.899417H301.71C302.629 0.899417 303.089 1.35912 303.089 2.27852Z" fill="white"/>
<path d="M338.547 31.7494C339.106 31.3697 339.676 31.1998 340.255 31.2398C340.854 31.2598 341.284 31.4796 341.544 31.8993L347.298 40.7736C347.518 41.0934 347.538 41.4831 347.358 41.9428C347.198 42.4025 346.878 42.7923 346.399 43.1121C344.74 44.2713 342.623 45.2607 340.045 46.0802C337.488 46.8796 335.18 47.2794 333.122 47.2794C329.806 47.2794 326.659 46.6798 323.682 45.4805C320.725 44.2613 318.177 42.6124 316.039 40.5337C313.902 38.4351 312.203 35.9267 310.945 33.0086C309.706 30.0905 309.087 26.9925 309.087 23.7146C309.087 20.4368 309.706 17.3388 310.945 14.4207C312.203 11.4826 313.902 8.96419 316.039 6.86555C318.177 4.76691 320.725 3.10799 323.682 1.88878C326.659 0.669566 329.806 0.0599612 333.122 0.0599612C335.18 0.0599612 337.518 0.479689 340.135 1.31915C342.772 2.1586 344.96 3.19793 346.698 4.43713C347.118 4.73693 347.368 5.11669 347.448 5.57639C347.548 6.03609 347.478 6.44582 347.238 6.80559L341.424 15.5899C341.164 15.9896 340.764 16.2095 340.225 16.2495C339.706 16.2695 339.206 16.0996 338.727 15.7398C338.007 15.1802 337.098 14.7105 335.999 14.3307C334.92 13.951 333.961 13.7611 333.122 13.7611C330.245 13.7611 327.808 14.7205 325.81 16.6392C323.812 18.538 322.813 20.8965 322.813 23.7146C322.813 26.5128 323.802 28.8513 325.78 30.7301C327.778 32.6089 330.225 33.5483 333.122 33.5483C333.901 33.5483 334.81 33.3784 335.849 33.0386C336.888 32.6788 337.787 32.2491 338.547 31.7494Z" fill="white"/>
<path d="M351.138 33.0086C349.899 30.0905 349.279 26.9925 349.279 23.7146C349.279 20.4368 349.899 17.3388 351.138 14.4207C352.376 11.4826 354.055 8.96419 356.172 6.86555C358.29 4.76691 360.818 3.10799 363.755 1.88878C366.692 0.669566 369.799 0.0599612 373.075 0.0599612C376.352 0.0599612 379.459 0.669566 382.396 1.88878C385.333 3.10799 387.86 4.76691 389.978 6.86555C392.096 8.96419 393.774 11.4826 395.013 14.4207C396.252 17.3388 396.871 20.4368 396.871 23.7146C396.871 26.9925 396.252 30.0905 395.013 33.0086C393.774 35.9267 392.096 38.4251 389.978 40.5038C387.86 42.5824 385.333 44.2313 382.396 45.4506C379.459 46.6698 376.352 47.2794 373.075 47.2794C369.779 47.2794 366.662 46.6698 363.725 45.4506C360.788 44.2313 358.26 42.5824 356.143 40.5038C354.045 38.4251 352.376 35.9267 351.138 33.0086ZM363.006 23.7146C363.006 26.5128 363.975 28.8513 365.913 30.7301C367.851 32.6089 370.238 33.5483 373.075 33.5483C375.913 33.5483 378.3 32.6089 380.238 30.7301C382.176 28.8513 383.145 26.5128 383.145 23.7146C383.145 20.9165 382.166 18.558 380.208 16.6392C378.27 14.7205 375.893 13.7611 373.075 13.7611C370.258 13.7611 367.871 14.7205 365.913 16.6392C363.975 18.538 363.006 20.8965 363.006 23.7146Z" fill="white"/>
<path d="M11.2716 46.6353H3.58284e-07C-1.85933e-07 40.3231 5.04646 35.206 11.2716 35.206L11.2716 46.6353Z" fill="white"/>
<path d="M11.2716 12.3473L3.58284e-07 12.3473C9.02501e-07 6.03506 5.04646 0.917969 11.2716 0.917969L11.2716 12.3473Z" fill="white"/>
<path d="M11.2716 46.6353H3.58284e-07L0 80.9234C6.22512 80.9234 11.2716 75.8063 11.2716 69.494V46.6353Z" fill="white"/>
<path d="M33.8147 46.6353V35.206H11.2716L11.2716 46.6353H33.8147Z" fill="white"/>
<path fill-rule="evenodd" clip-rule="evenodd" d="M11.2716 0.917969L45.0863 0.917969C38.8612 0.917969 33.8147 6.03506 33.8147 12.3473L11.2716 12.3473L11.2716 0.917969Z" fill="white"/>
<path d="M11.2716 12.3473V20.9193C11.2716 27.2316 6.22512 32.3487 0 32.3487L3.58284e-07 12.3473L11.2716 12.3473Z" fill="white"/>
<path d="M33.8147 12.3473C33.8147 6.03506 38.8612 0.917969 45.0863 0.917969V35.206C45.0863 41.5182 40.0398 46.6353 33.8147 46.6353V35.206V12.3473Z" fill="white"/>
<path d="M281.503 77.1042L277.797 64.7345H278.828L282.019 75.6627H282.108L285.307 64.7345H286.33L289.521 75.6546H289.602L292.792 64.7345H293.824L290.117 77.1042H289.021L285.863 66.3371H285.758L282.599 77.1042H281.503Z" fill="white"/>
<path d="M301.291 77.3619C300.174 77.3619 299.202 77.0854 298.374 76.5324C297.547 75.9794 296.908 75.2224 296.457 74.2614C296.005 73.3004 295.78 72.2052 295.78 70.9757C295.78 69.7409 296.005 68.6403 296.457 67.6739C296.913 66.7076 297.539 65.9452 298.334 65.3869C299.129 64.8285 300.037 64.5493 301.058 64.5493C301.751 64.5493 302.406 64.6889 303.024 64.9681C303.647 65.2419 304.195 65.6392 304.668 66.16C305.146 66.6807 305.519 67.3089 305.788 68.0444C306.062 68.7799 306.198 69.6067 306.198 70.5248V71.1368H296.4V70.2429H305.215C305.215 69.3463 305.033 68.5383 304.668 67.8189C304.302 67.0995 303.805 66.5277 303.177 66.1036C302.548 65.6794 301.842 65.4674 301.058 65.4674C300.236 65.4674 299.502 65.6982 298.858 66.16C298.219 66.6163 297.711 67.2337 297.335 68.0122C296.964 68.7907 296.771 69.6604 296.755 70.6214V71.0241C296.755 72.0549 296.935 72.981 297.295 73.8024C297.66 74.6185 298.181 75.2654 298.858 75.7432C299.535 76.2157 300.346 76.4519 301.291 76.4519C301.968 76.4519 302.546 76.3391 303.024 76.1137C303.507 75.8828 303.902 75.6036 304.208 75.2761C304.514 74.9486 304.745 74.6319 304.901 74.3259L305.796 74.6882C305.608 75.1016 305.315 75.515 304.917 75.9284C304.525 76.3365 304.026 76.6774 303.419 76.9512C302.817 77.225 302.108 77.3619 301.291 77.3619Z" fill="white"/>
<path d="M309.929 77.1042V60.6113H310.904V67.4968H311.001C311.194 66.9653 311.468 66.4767 311.823 66.0311C312.177 65.5855 312.618 65.2285 313.144 64.96C313.671 64.6862 314.286 64.5493 314.99 64.5493C315.983 64.5493 316.851 64.8258 317.592 65.3788C318.333 65.9264 318.908 66.6834 319.317 67.6498C319.725 68.6108 319.929 69.7114 319.929 70.9516C319.929 72.2025 319.725 73.3112 319.317 74.2775C318.908 75.2385 318.336 75.9929 317.6 76.5405C316.864 77.0881 315.997 77.3619 314.998 77.3619C314.294 77.3619 313.679 77.2277 313.152 76.9592C312.626 76.6854 312.185 76.3257 311.831 75.8801C311.476 75.4291 311.2 74.9379 311.001 74.4064H310.888V77.1042H309.929ZM310.896 70.9435C310.896 71.9958 311.055 72.938 311.372 73.7702C311.694 74.597 312.156 75.252 312.758 75.7352C313.359 76.213 314.079 76.4519 314.917 76.4519C315.766 76.4519 316.491 76.2103 317.093 75.7271C317.694 75.2385 318.154 74.5782 318.47 73.746C318.793 72.9139 318.954 71.9797 318.954 70.9435C318.954 69.9074 318.793 68.9759 318.47 68.1491C318.154 67.3223 317.694 66.67 317.093 66.1922C316.491 65.709 315.766 65.4674 314.917 65.4674C314.079 65.4674 313.359 65.7063 312.758 66.1841C312.156 66.6566 311.694 67.3062 311.372 68.133C311.055 68.9544 310.896 69.8912 310.896 70.9435Z" fill="white"/>
<path d="M333.949 77.3619C332.956 77.3619 332.088 77.0881 331.347 76.5405C330.605 75.9929 330.031 75.2385 329.622 74.2775C329.22 73.3112 329.018 72.2025 329.018 70.9516C329.018 69.7114 329.222 68.6108 329.63 67.6498C330.044 66.6834 330.622 65.9264 331.363 65.3788C332.104 64.8258 332.969 64.5493 333.957 64.5493C334.667 64.5493 335.282 64.6862 335.803 64.96C336.329 65.2285 336.77 65.5855 337.124 66.0311C337.484 66.4767 337.758 66.9653 337.946 67.4968H338.043V60.6113H339.018V77.1042H338.067V74.4064H337.946C337.747 74.9379 337.471 75.4291 337.116 75.8801C336.762 76.3257 336.321 76.6854 335.795 76.9592C335.268 77.2277 334.653 77.3619 333.949 77.3619ZM334.038 76.4519C334.876 76.4519 335.593 76.213 336.19 75.7352C336.791 75.252 337.25 74.597 337.567 73.7702C337.89 72.938 338.051 71.9958 338.051 70.9435C338.051 69.8912 337.89 68.9544 337.567 68.133C337.25 67.3062 336.791 66.6566 336.19 66.1841C335.593 65.7063 334.876 65.4674 334.038 65.4674C333.189 65.4674 332.461 65.709 331.854 66.1922C331.253 66.67 330.791 67.3223 330.468 68.1491C330.152 68.9759 329.993 69.9074 329.993 70.9435C329.993 71.9797 330.152 72.9139 330.468 73.746C330.791 74.5782 331.253 75.2385 331.854 75.7271C332.461 76.2103 333.189 76.4519 334.038 76.4519Z" fill="white"/>
<path d="M348.268 77.3619C347.151 77.3619 346.178 77.0854 345.351 76.5324C344.524 75.9794 343.885 75.2224 343.433 74.2614C342.982 73.3004 342.757 72.2052 342.757 70.9757C342.757 69.7409 342.982 68.6403 343.433 67.6739C343.89 66.7076 344.516 65.9452 345.311 65.3869C346.106 64.8285 347.014 64.5493 348.034 64.5493C348.727 64.5493 349.383 64.6889 350.001 64.9681C350.624 65.2419 351.172 65.6392 351.644 66.16C352.122 66.6807 352.496 67.3089 352.764 68.0444C353.038 68.7799 353.175 69.6067 353.175 70.5248V71.1368H343.377V70.2429H352.192C352.192 69.3463 352.01 68.5383 351.644 67.8189C351.279 67.0995 350.782 66.5277 350.154 66.1036C349.525 65.6794 348.819 65.4674 348.034 65.4674C347.213 65.4674 346.479 65.6982 345.835 66.16C345.195 66.6163 344.688 67.2337 344.312 68.0122C343.941 68.7907 343.748 69.6604 343.732 70.6214V71.0241C343.732 72.0549 343.912 72.981 344.271 73.8024C344.637 74.6185 345.158 75.2654 345.835 75.7432C346.511 76.2157 347.323 76.4519 348.268 76.4519C348.945 76.4519 349.522 76.3391 350.001 76.1137C350.484 75.8828 350.879 75.6036 351.185 75.2761C351.491 74.9486 351.722 74.6319 351.878 74.3259L352.772 74.6882C352.584 75.1016 352.292 75.515 351.894 75.9284C351.502 76.3365 351.002 76.6774 350.395 76.9512C349.794 77.225 349.085 77.3619 348.268 77.3619Z" fill="white"/>
<path d="M364.424 67.4001L363.513 67.6417C363.368 67.1908 363.162 66.8015 362.893 66.474C362.624 66.1465 362.286 65.8942 361.878 65.717C361.475 65.5345 360.991 65.4432 360.427 65.4432C359.519 65.4432 358.775 65.6687 358.195 66.1197C357.62 66.5707 357.333 67.1585 357.333 67.8833C357.333 68.4739 357.529 68.9625 357.921 69.349C358.313 69.7302 358.912 70.0201 359.718 70.2187L361.62 70.6939C362.597 70.9355 363.333 71.3274 363.828 71.8696C364.322 72.4065 364.569 73.0749 364.569 73.8749C364.569 74.5567 364.384 75.1607 364.013 75.6868C363.642 76.213 363.129 76.6237 362.474 76.919C361.824 77.2143 361.067 77.3619 360.202 77.3619C359.047 77.3619 358.099 77.0935 357.357 76.5566C356.616 76.0143 356.141 75.2385 355.931 74.2292L356.874 73.9876C357.051 74.7929 357.419 75.4077 357.978 75.8318C358.542 76.2506 359.28 76.4599 360.194 76.4599C361.203 76.4599 362.017 76.221 362.635 75.7432C363.258 75.2654 363.57 74.6534 363.57 73.9071C363.57 73.338 363.387 72.8575 363.022 72.4656C362.657 72.0737 362.103 71.7864 361.362 71.6039L359.388 71.1207C358.378 70.8737 357.62 70.4791 357.116 69.9369C356.611 69.3893 356.358 68.7155 356.358 67.9155C356.358 67.2498 356.533 66.6646 356.882 66.16C357.231 65.6553 357.712 65.2607 358.324 64.9761C358.937 64.6916 359.638 64.5493 360.427 64.5493C361.475 64.5493 362.329 64.7963 362.99 65.2902C363.65 65.7841 364.128 66.4874 364.424 67.4001Z" fill="white"/>
<path d="M368.02 77.1042V64.7345H368.995V77.1042H368.02ZM368.511 62.5441C368.296 62.5441 368.108 62.4689 367.947 62.3186C367.791 62.1683 367.714 61.9857 367.714 61.771C367.714 61.5562 367.791 61.3737 367.947 61.2234C368.103 61.073 368.291 60.9979 368.511 60.9979C368.726 60.9979 368.911 61.073 369.067 61.2234C369.228 61.3737 369.309 61.5562 369.309 61.771C369.309 61.9857 369.231 62.1683 369.075 62.3186C368.919 62.4689 368.731 62.5441 368.511 62.5441Z" fill="white"/>
<path d="M377.576 82.0005C376.808 82.0005 376.118 81.8985 375.505 81.6945C374.893 81.4958 374.372 81.2113 373.942 80.8409C373.518 80.4704 373.193 80.0302 372.967 79.5201L373.789 79.037C373.972 79.4342 374.232 79.7886 374.571 80.1C374.909 80.4114 375.328 80.6556 375.828 80.8328C376.333 81.01 376.915 81.0986 377.576 81.0986C378.769 81.0986 379.712 80.7899 380.404 80.1724C381.103 79.5604 381.452 78.6209 381.452 77.3538V74.2775H381.355C381.167 74.8144 380.888 75.2922 380.517 75.711C380.152 76.1244 379.703 76.4492 379.172 76.6854C378.64 76.9217 378.036 77.0398 377.359 77.0398C376.381 77.0398 375.521 76.7874 374.78 76.2828C374.039 75.7781 373.461 75.0694 373.048 74.1567C372.634 73.2387 372.427 72.1596 372.427 70.9194C372.427 69.6792 372.629 68.5813 373.032 67.6256C373.44 66.6646 374.015 65.913 374.756 65.3707C375.497 64.8231 376.368 64.5493 377.367 64.5493C378.081 64.5493 378.699 64.6862 379.22 64.96C379.746 65.2285 380.187 65.5855 380.541 66.0311C380.896 66.4767 381.17 66.9653 381.363 67.4968H381.476V64.7345H382.427V77.3941C382.427 78.4249 382.223 79.2812 381.815 79.9631C381.412 80.6449 380.845 81.1549 380.114 81.4932C379.389 81.8314 378.543 82.0005 377.576 82.0005ZM377.447 76.1298C378.275 76.1298 378.986 75.9204 379.583 75.5016C380.184 75.0775 380.646 74.4762 380.969 73.6977C381.296 72.9139 381.46 71.9851 381.46 70.9113C381.46 69.8698 381.302 68.9383 380.985 68.1169C380.668 67.2954 380.208 66.6485 379.607 66.1761C379.005 65.7036 378.285 65.4674 377.447 65.4674C376.593 65.4674 375.865 65.709 375.264 66.1922C374.662 66.67 374.2 67.3196 373.878 68.141C373.561 68.9625 373.402 69.8859 373.402 70.9113C373.402 71.9421 373.563 72.8494 373.886 73.6333C374.208 74.4118 374.67 75.0238 375.272 75.4694C375.873 75.9096 376.599 76.1298 377.447 76.1298Z" fill="white"/>
<path d="M387.546 69.0832V77.1042H386.563V64.7345H387.522V66.6915H387.618C387.908 66.0526 388.373 65.5399 389.012 65.1533C389.651 64.7668 390.412 64.5735 391.293 64.5735C392.125 64.5735 392.856 64.7507 393.484 65.105C394.118 65.4593 394.612 65.964 394.967 66.619C395.327 67.2686 395.507 68.0444 395.507 68.9463V77.1042H394.524V68.9866C394.524 67.9343 394.209 67.0888 393.581 66.4499C392.958 65.8056 392.133 65.4835 391.107 65.4835C390.42 65.4835 389.807 65.6338 389.27 65.9345C388.733 66.2351 388.311 66.6566 388.005 67.1988C387.699 67.7357 387.546 68.3638 387.546 69.0832Z" fill="white"/>
</svg>
